<svg width="300" height="200" viewBox="0 0 290 143" fill="none" xmlns="http://www.w3.org/2000/svg">
<path d="M0.280469 143V141H8.48047C10.3471 141 12.0805 140.733 13.6805 140.2C15.2805 139.667 16.5471 138.533 17.4805 136.8C18.4138 134.933 18.8805 132.2 18.8805 128.6V13.8C18.8805 10.3333 18.3471 7.79999 17.2805 6.2C16.3471 4.59999 15.1471 3.53332 13.6805 2.99999C12.2138 2.46666 10.6805 2.19999 9.08047 2.19999H0.280469V0.199991H64.8805C84.6138 0.199991 99.1471 3.86666 108.48 11.2C117.947 18.5333 122.68 29.0667 122.68 42.8C122.68 49.2 121.547 55.2 119.28 60.8C117.147 66.2667 113.614 71.1333 108.68 75.4C103.747 79.6667 97.2805 83 89.2805 85.4C81.4138 87.6667 71.8138 88.8 60.4805 88.8H54.8805V129.6C54.8805 132.933 55.3471 135.467 56.2805 137.2C57.2138 138.8 58.4138 139.867 59.8805 140.4C61.4805 140.8 63.1471 141 64.8805 141H77.6805V143H0.280469ZM58.6805 86.8C63.4805 86.8 67.4805 86.0667 70.6805 84.6C74.0138 83 76.7471 80.5333 78.8805 77.2C81.0138 73.8667 82.5471 69.4667 83.4805 64C84.4138 58.5333 84.8805 51.8667 84.8805 44C84.8805 33.7333 84.0805 25.6 82.4805 19.6C81.0138 13.4667 78.5471 9.06666 75.0805 6.39999C71.7471 3.59999 67.2138 2.19999 61.4805 2.19999H54.8805V86.8H58.6805ZM136.749 143V141H149.349C151.483 141 153.349 140.733 154.949 140.2C156.683 139.667 158.016 138.533 158.949 136.8C159.883 134.933 160.349 132.2 160.349 128.6V13.8C160.349 10.3333 159.883 7.79999 158.949 6.2C158.016 4.59999 156.749 3.53332 155.149 2.99999C153.683 2.46666 152.083 2.19999 150.349 2.19999H136.749V0.199991H192.949L262.349 104.8V13.8C262.349 10.7333 261.883 8.39999 260.949 6.79999C260.149 5.06666 259.016 3.86666 257.549 3.19999C256.083 2.53332 254.416 2.19999 252.549 2.19999H237.149V0.199991H289.149V2.19999H274.349C272.483 2.19999 270.749 2.59999 269.149 3.4C267.683 4.06666 266.483 5.26666 265.549 7C264.749 8.73333 264.349 11.2667 264.349 14.6V143H250.549L162.349 10.4V128.6C162.349 132.2 162.683 134.933 163.349 136.8C164.149 138.533 165.283 139.667 166.749 140.2C168.349 140.733 170.149 141 172.149 141H188.749V143H136.749Z" fill="white"/>
</svg>
